<svg width="114" height="57" viewBox="0 0 114 57" fill="none" xmlns="http://www.w3.org/2000/svg">
<path d="M0.821289 12.4766C0.801758 12.3203 0.762695 12.1836 0.704102 12.0664C0.665039 11.9297 0.616211 11.7832 0.557617 11.627C0.459961 11.3926 0.37207 11.1387 0.293945 10.8652C0.21582 10.5918 0.176758 10.2695 0.176758 9.89844C0.21582 9.70312 0.264648 9.56641 0.323242 9.48828C0.381836 9.39062 0.44043 9.3125 0.499023 9.25391L0.616211 8.72656H1.05566C1.21191 8.74609 1.36816 8.75586 1.52441 8.75586C1.7002 8.75586 1.86621 8.75586 2.02246 8.75586C2.76465 8.75586 3.52637 8.72656 4.30762 8.66797C5.08887 8.60938 5.88965 8.54102 6.70996 8.46289C7.6084 8.3457 8.5752 8.25781 9.61035 8.19922C9.70801 7.98437 9.7666 7.84766 9.78613 7.78906C9.8252 7.73047 9.86426 7.66211 9.90332 7.58398L10.2256 7.4082C10.6748 7.38867 10.9873 7.44727 11.1631 7.58398C11.3389 7.70117 11.4756 7.81836 11.5732 7.93555C12.0811 7.89648 12.5986 7.84766 13.126 7.78906C13.6533 7.71094 14.2002 7.63281 14.7666 7.55469C15.5479 7.45703 16.3389 7.35938 17.1396 7.26172C17.9404 7.16406 18.7217 7.11523 19.4834 7.11523C19.8154 7.11523 20.1279 7.125 20.4209 7.14453C20.7139 7.16406 20.9971 7.19336 21.2705 7.23242L21.6221 7.49609C21.7002 7.63281 21.7979 7.75977 21.915 7.87695C22.0322 7.99414 22.1689 8.11133 22.3252 8.22852C22.6182 8.46289 22.9014 8.75586 23.1748 9.10742C23.4678 9.45898 23.5752 9.97656 23.4971 10.6602L23.3506 10.9531C23.2725 11.0312 23.1748 11.1094 23.0576 11.1875L22.7646 11.5684H22.4424C22.2471 11.5684 22.1006 11.5879 22.0029 11.627C21.9053 11.6465 21.7881 11.6855 21.6514 11.7441C21.5732 11.7832 21.4854 11.8223 21.3877 11.8613C21.29 11.8809 21.1826 11.9102 21.0654 11.9492C20.8506 11.9297 20.6846 11.9199 20.5674 11.9199C20.4502 11.9199 20.3135 11.9199 20.1572 11.9199C19.5713 11.9199 18.9365 11.959 18.2529 12.0371C17.5693 12.1152 16.9053 12.2031 16.2607 12.3008C15.792 12.3594 15.3428 12.418 14.9131 12.4766C14.4834 12.5156 14.0928 12.5547 13.7412 12.5938C13.5459 13.1016 13.3701 13.5508 13.2139 13.9414C13.0576 14.332 12.8916 14.7227 12.7158 15.1133C12.54 15.5039 12.374 15.9043 12.2178 16.3145C12.0615 16.7051 11.915 17.1445 11.7783 17.6328C11.5439 17.9844 11.3486 18.3262 11.1924 18.6582C11.0361 18.9707 10.9092 19.332 10.8115 19.7422C10.5186 20.0742 10.3037 20.4355 10.167 20.8262C10.0498 21.2168 9.94238 21.5488 9.84473 21.8223L9.72754 22.2617C9.59082 22.3984 9.50293 22.5059 9.46387 22.584C9.44434 22.6621 9.39551 22.75 9.31738 22.8477C9.25879 23.1016 9.18066 23.3457 9.08301 23.5801C9.04395 23.6777 9.00488 23.7852 8.96582 23.9023C8.92676 24 8.91699 24.0781 8.93652 24.1367C8.89746 24.3516 8.83887 24.5176 8.76074 24.6348C8.76074 24.752 8.75098 24.8691 8.73145 24.9863C8.71191 25.1035 8.69238 25.2207 8.67285 25.3379C8.63379 25.4746 8.60449 25.6016 8.58496 25.7188C8.56543 25.8164 8.5752 25.9141 8.61426 26.0117C8.67285 26.0898 8.73145 26.168 8.79004 26.2461C8.84863 26.3242 8.89746 26.4219 8.93652 26.5391C8.97559 26.5781 9.02441 26.6074 9.08301 26.627C9.1416 26.6465 9.19043 26.6758 9.22949 26.7148C9.38574 26.8516 9.53223 26.9297 9.66895 26.9492L9.96191 27.3008C10.0791 28.0039 9.97168 28.5508 9.63965 28.9414C9.28809 29.3906 8.70215 29.6152 7.88184 29.6152L7.47168 29.5859C7.33496 29.4492 7.25684 29.3613 7.2373 29.3223C7.06152 29.2441 6.91504 29.1758 6.79785 29.1172C6.68066 29.0781 6.57324 28.9902 6.47559 28.8535C6.43652 28.8145 6.3877 28.7949 6.3291 28.7949C6.27051 28.7754 6.22168 28.7461 6.18262 28.707C5.9873 28.6484 5.83105 28.5801 5.71387 28.502L5.3916 28.3262C5.41113 28.1309 5.4209 27.9941 5.4209 27.916C5.26465 27.7012 5.1377 27.4668 5.04004 27.2129C4.96191 26.959 4.89355 26.6953 4.83496 26.4219C4.77637 26.207 4.71777 26.0117 4.65918 25.8359C4.62012 25.6602 4.55176 25.5039 4.4541 25.3672C4.41504 24 4.54199 22.8574 4.83496 21.9395C5.12793 21.002 5.4502 20.0938 5.80176 19.2148C5.99707 18.7461 6.18262 18.2676 6.3584 17.7793C6.53418 17.291 6.69043 16.793 6.82715 16.2852L7.14941 15.9629C7.28613 15.8457 7.37402 15.7773 7.41309 15.7578C7.41309 15.5039 7.46191 15.2598 7.55957 15.0254C7.65723 14.7715 7.76465 14.5176 7.88184 14.2637C7.95996 14.1074 8.02832 13.9512 8.08691 13.7949C8.16504 13.6387 8.21387 13.502 8.2334 13.3848C8.09668 13.3848 7.96973 13.3945 7.85254 13.4141C7.75488 13.4141 7.64746 13.4238 7.53027 13.4434C7.27637 13.502 7.03223 13.5312 6.79785 13.5312C6.62207 13.5312 6.49512 13.5215 6.41699 13.502C6.26074 13.5801 6.11426 13.6289 5.97754 13.6484C5.84082 13.6484 5.7041 13.6484 5.56738 13.6484H5.21582H4.86426C4.62988 13.6484 4.44434 13.6777 4.30762 13.7363C4.03418 13.7363 3.8584 13.7363 3.78027 13.7363C3.70215 13.7363 3.61426 13.7363 3.5166 13.7363H3.16504H2.81348C2.65723 13.7363 2.48145 13.7266 2.28613 13.707C2.09082 13.668 1.88574 13.5898 1.6709 13.4727L1.46582 13.2383C1.34863 13.0234 1.24121 12.9062 1.14355 12.8867L0.821289 12.7988V12.4766ZM34.5713 20.2109C34.5518 20.4453 34.5713 20.6699 34.6299 20.8848C34.6885 21.0996 34.7568 21.3145 34.835 21.5293C34.9326 21.7246 35.0205 21.9297 35.0986 22.1445C35.1768 22.3594 35.2354 22.5742 35.2744 22.7891C35.3135 23.0625 35.3135 23.3652 35.2744 23.6973C35.2354 24.0098 35.167 24.3223 35.0693 24.6348C34.9717 24.9277 34.8447 25.2012 34.6885 25.4551C34.5322 25.6895 34.3467 25.8652 34.1318 25.9824C33.8584 26.334 33.5264 26.6074 33.1357 26.8027C32.7451 26.998 32.3838 27.2324 32.0518 27.5059C31.8369 27.6426 31.5928 27.7402 31.3193 27.7988C31.0654 27.8574 30.8018 27.916 30.5283 27.9746C30.3135 28.0918 30.0596 28.2188 29.7666 28.3555C29.4736 28.4727 29.1709 28.5898 28.8584 28.707C28.5459 28.8047 28.2334 28.8828 27.9209 28.9414C27.6084 28.9805 27.335 28.9902 27.1006 28.9707C26.5146 29.1855 25.9385 29.3223 25.3721 29.3809C24.8252 29.459 24.1807 29.4199 23.4385 29.2637C22.7354 29.3613 22.0811 29.332 21.4756 29.1758C20.8896 29.0195 20.3623 28.7754 19.8936 28.4434C19.4443 28.0918 19.0439 27.6816 18.6924 27.2129C18.3604 26.7246 18.0869 26.2168 17.8721 25.6895C17.7158 24.5762 17.7549 23.5703 17.9893 22.6719C18.2236 21.7539 18.5557 20.9141 18.9854 20.1523C19.4346 19.3711 19.9424 18.6582 20.5088 18.0137C21.0752 17.3496 21.6221 16.7051 22.1494 16.0801C22.2666 16.1191 22.3545 16.1191 22.4131 16.0801C22.4912 16.0215 22.5596 15.9531 22.6182 15.875C22.6768 15.7773 22.7354 15.6895 22.7939 15.6113C22.8721 15.5332 22.96 15.4844 23.0576 15.4648C23.1943 15.1719 23.3896 14.957 23.6436 14.8203C23.917 14.6641 24.1318 14.4492 24.2881 14.1758C24.4639 14.1367 24.6104 14.0781 24.7275 14C24.8447 13.9219 24.9521 13.834 25.0498 13.7363C25.167 13.6387 25.2842 13.5508 25.4014 13.4727C25.5186 13.375 25.6553 13.3066 25.8115 13.2676V12.9453C26.1631 12.7891 26.417 12.6133 26.5732 12.418C26.749 12.2031 26.9541 11.9492 27.1885 11.6562C27.3643 11.6367 27.501 11.627 27.5986 11.627C27.7158 11.627 27.8818 11.6074 28.0967 11.5684C28.2529 11.2949 28.3896 11.0898 28.5068 10.9531C28.6436 10.8164 28.8389 10.6699 29.0928 10.5137C29.3271 10.6309 29.5811 10.709 29.8545 10.748C30.1475 10.7871 30.4014 10.9141 30.6162 11.1289C30.6357 11.3242 30.6943 11.4805 30.792 11.5977C30.8896 11.6953 30.9971 11.793 31.1143 11.8906C31.2314 11.9688 31.3389 12.0566 31.4365 12.1543C31.5537 12.252 31.6318 12.3887 31.6709 12.5645C31.749 12.584 31.7979 12.5742 31.8174 12.5352C31.8564 12.4961 31.915 12.4863 31.9932 12.5059C32.0518 12.7793 32.1201 12.9648 32.1982 13.0625C32.2764 13.1406 32.3545 13.3066 32.4326 13.5605C32.335 13.7559 32.2568 13.9609 32.1982 14.1758C32.1592 14.3711 32.042 14.5176 31.8467 14.6152C31.8271 14.752 31.8662 14.8301 31.9639 14.8496C32.0615 14.8496 32.1201 14.8984 32.1396 14.9961C32.1592 15.1719 32.1299 15.2988 32.0518 15.377C32.5205 16.1387 32.9404 16.9492 33.3115 17.8086C33.6826 18.6484 34.1025 19.4492 34.5713 20.2109ZM30.9092 22.9941C30.9873 22.7793 31.085 22.6035 31.2021 22.4668C31.3389 22.3301 31.417 22.125 31.4365 21.8516C31.3389 21.6953 31.2803 21.5781 31.2607 21.5C31.2412 21.4023 31.2314 21.2559 31.2314 21.0605C30.8018 20.4551 30.4307 19.8105 30.1182 19.127C29.8057 18.4238 29.4541 17.7695 29.0635 17.1641C29.0244 17.2422 28.9561 17.3203 28.8584 17.3984C28.7607 17.4766 28.6533 17.457 28.5361 17.3398C28.4971 17.4961 28.4287 17.6133 28.3311 17.6914C28.2334 17.75 28.126 17.7793 28.0088 17.7793C27.8916 17.7598 27.7646 17.7305 27.6279 17.6914C27.5107 17.6328 27.4033 17.5645 27.3057 17.4863C26.7393 17.9355 26.1729 18.375 25.6064 18.8047C25.04 19.2344 24.5322 19.7324 24.083 20.2988C24.0049 20.3379 23.9561 20.3574 23.9365 20.3574C23.917 20.3379 23.8584 20.3477 23.7607 20.3867C23.6045 20.7578 23.4092 21.0996 23.1748 21.4121C22.96 21.7051 22.7451 22.0078 22.5303 22.3203C22.3154 22.6328 22.1299 22.9648 21.9736 23.3164C21.8174 23.668 21.7295 24.0781 21.71 24.5469C22.042 24.8203 22.4326 24.9863 22.8818 25.0449C23.3311 25.1035 23.79 25.1133 24.2588 25.0742C24.7471 25.0352 25.2158 24.9766 25.665 24.8984C26.1338 24.8008 26.5635 24.752 26.9541 24.752C27.7744 24.5566 28.4775 24.3027 29.0635 23.9902C29.6494 23.6582 30.2646 23.3262 30.9092 22.9941ZM41.0752 25.9531C40.8604 26.7344 40.665 27.3301 40.4893 27.7402C40.333 28.1309 40.0889 28.541 39.7568 28.9707C39.5029 28.9316 39.3271 28.9609 39.2295 29.0586C39.1318 29.1562 39.0244 29.2441 38.9072 29.3223C38.7314 29.3613 38.6045 29.3613 38.5264 29.3223C38.4482 29.2832 38.3799 29.2344 38.3213 29.1758C38.2627 29.1367 38.1846 29.0879 38.0869 29.0293C38.0088 28.9902 37.8818 28.9707 37.7061 28.9707C37.667 28.8145 37.6182 28.668 37.5596 28.5312C37.5205 28.3945 37.3936 28.3457 37.1787 28.3848C37.2178 28.2285 37.2275 28.1016 37.208 28.0039C37.1885 27.8867 37.1592 27.7891 37.1201 27.7109C37.1006 27.6133 37.0811 27.5254 37.0615 27.4473C37.042 27.3496 37.0518 27.2324 37.0908 27.0957C36.9932 27.0957 36.915 27.0273 36.8564 26.8906C36.7979 26.7539 36.7295 26.6172 36.6514 26.4805C36.71 26.1289 36.7686 25.7969 36.8271 25.4844C36.8857 25.1719 36.9541 24.8789 37.0322 24.6055C37.1299 24.332 37.208 24.0586 37.2666 23.7852C37.3252 23.5117 37.2959 23.2285 37.1787 22.9355C37.2568 22.9941 37.3154 22.9844 37.3545 22.9062C37.3936 22.8086 37.4229 22.6914 37.4424 22.5547C37.4619 22.3984 37.4717 22.252 37.4717 22.1152C37.4717 21.959 37.4619 21.832 37.4424 21.7344C37.6377 21.2266 37.7939 20.709 37.9111 20.1816C38.0479 19.6348 38.165 19.0977 38.2627 18.5703C38.3799 18.043 38.4971 17.5254 38.6143 17.0176C38.7314 16.5098 38.8877 16.041 39.083 15.6113C39.2979 15.5723 39.5322 15.6016 39.7861 15.6992C40.0596 15.7773 40.2256 15.8848 40.2842 16.0215C40.792 15.6309 41.2412 15.1621 41.6318 14.6152C42.0225 14.0488 42.4229 13.502 42.833 12.9746C43.2432 12.4473 43.6924 11.9785 44.1807 11.5684C44.6885 11.1582 45.3232 10.9141 46.085 10.8359C46.4756 11.1289 46.9053 11.4316 47.374 11.7441C47.8623 12.0371 48.2627 12.4277 48.5752 12.916C48.7314 12.9941 48.8584 13.082 48.9561 13.1797C49.0732 13.2578 49.21 13.3457 49.3662 13.4434V13.7949C49.6006 14.0098 49.7861 14.2637 49.9229 14.5566C50.0791 14.8301 50.2158 15.1328 50.333 15.4648C50.4502 15.7773 50.5674 16.0996 50.6846 16.4316C50.8018 16.7441 50.9385 17.0469 51.0947 17.3398C51.0557 17.4375 51.0361 17.5254 51.0361 17.6035C51.0361 17.6621 51.0459 17.7305 51.0654 17.8086C51.1045 17.8867 51.1338 17.9648 51.1533 18.043C51.1729 18.1211 51.1729 18.2285 51.1533 18.3652C51.0947 19.2246 50.8115 19.918 50.3037 20.4453C49.8154 20.9727 49.2197 21.4121 48.5166 21.7637C47.8135 22.0957 47.0615 22.3789 46.2607 22.6133C45.46 22.8477 44.7373 23.1016 44.0928 23.375C44.0928 23.4531 44.1221 23.4922 44.1807 23.4922C44.2588 23.4922 44.2881 23.541 44.2686 23.6387C44.7373 23.9316 45.1084 24.166 45.3818 24.3418C45.6553 24.5176 45.9092 24.6641 46.1436 24.7812C46.3975 24.8984 46.6611 25.0059 46.9346 25.1035C47.2275 25.1816 47.6279 25.2793 48.1357 25.3965C48.6436 25.5137 49.0342 25.6113 49.3076 25.6895C49.6006 25.748 49.8643 25.8066 50.0986 25.8652C50.333 25.9043 50.5674 25.9434 50.8018 25.9824C51.0557 26.002 51.4072 26.0312 51.8564 26.0703C52.0322 26.2461 52.1787 26.4609 52.2959 26.7148C52.4326 26.9492 52.5205 27.1934 52.5596 27.4473C52.5986 27.6816 52.6084 27.916 52.5889 28.1504C52.5693 28.3652 52.501 28.541 52.3838 28.6777C52.4033 28.7363 52.4424 28.7656 52.501 28.7656C52.5791 28.7461 52.6572 28.7461 52.7354 28.7656C52.6182 28.8438 52.5205 28.9414 52.4424 29.0586C52.3643 29.1758 52.2861 29.293 52.208 29.4102C52.1299 29.5273 52.042 29.625 51.9443 29.7031C51.8467 29.8008 51.71 29.8594 51.5342 29.8789C50.9287 30.1133 50.167 30.123 49.249 29.9082C48.3311 29.7129 47.1689 29.3418 45.7627 28.7949C45.0596 28.5215 44.4834 28.2871 44.0342 28.0918C43.6045 27.877 43.2236 27.6719 42.8916 27.4766C42.5791 27.2617 42.2861 27.0371 42.0127 26.8027C41.7588 26.5684 41.4463 26.2852 41.0752 25.9531ZM45.2646 15.9043C45.0498 16.2168 44.8057 16.5 44.5322 16.7539C44.2783 17.0078 44.0244 17.2715 43.7705 17.5449C43.5361 17.7988 43.3213 18.0918 43.126 18.4238C42.9307 18.7363 42.7939 19.1074 42.7158 19.5371C43.3994 19.459 44.1123 19.2734 44.8545 18.9805C45.5967 18.668 46.2998 18.375 46.9639 18.1016C46.8857 17.4961 46.6709 17.0078 46.3193 16.6367C45.9873 16.2656 45.6357 16.0215 45.2646 15.9043ZM69.6689 20.2109C69.6494 20.4453 69.6689 20.6699 69.7275 20.8848C69.7861 21.0996 69.8545 21.3145 69.9326 21.5293C70.0303 21.7246 70.1182 21.9297 70.1963 22.1445C70.2744 22.3594 70.333 22.5742 70.3721 22.7891C70.4111 23.0625 70.4111 23.3652 70.3721 23.6973C70.333 24.0098 70.2646 24.3223 70.167 24.6348C70.0693 24.9277 69.9424 25.2012 69.7861 25.4551C69.6299 25.6895 69.4443 25.8652 69.2295 25.9824C68.9561 26.334 68.624 26.6074 68.2334 26.8027C67.8428 26.998 67.4814 27.2324 67.1494 27.5059C66.9346 27.6426 66.6904 27.7402 66.417 27.7988C66.1631 27.8574 65.8994 27.916 65.626 27.9746C65.4111 28.0918 65.1572 28.2188 64.8643 28.3555C64.5713 28.4727 64.2686 28.5898 63.9561 28.707C63.6436 28.8047 63.3311 28.8828 63.0186 28.9414C62.7061 28.9805 62.4326 28.9902 62.1982 28.9707C61.6123 29.1855 61.0361 29.3223 60.4697 29.3809C59.9229 29.459 59.2783 29.4199 58.5361 29.2637C57.833 29.3613 57.1787 29.332 56.5732 29.1758C55.9873 29.0195 55.46 28.7754 54.9912 28.4434C54.542 28.0918 54.1416 27.6816 53.79 27.2129C53.458 26.7246 53.1846 26.2168 52.9697 25.6895C52.8135 24.5762 52.8525 23.5703 53.0869 22.6719C53.3213 21.7539 53.6533 20.9141 54.083 20.1523C54.5322 19.3711 55.04 18.6582 55.6064 18.0137C56.1729 17.3496 56.7197 16.7051 57.2471 16.0801C57.3643 16.1191 57.4521 16.1191 57.5107 16.0801C57.5889 16.0215 57.6572 15.9531 57.7158 15.875C57.7744 15.7773 57.833 15.6895 57.8916 15.6113C57.9697 15.5332 58.0576 15.4844 58.1553 15.4648C58.292 15.1719 58.4873 14.957 58.7412 14.8203C59.0146 14.6641 59.2295 14.4492 59.3857 14.1758C59.5615 14.1367 59.708 14.0781 59.8252 14C59.9424 13.9219 60.0498 13.834 60.1475 13.7363C60.2646 13.6387 60.3818 13.5508 60.499 13.4727C60.6162 13.375 60.7529 13.3066 60.9092 13.2676V12.9453C61.2607 12.7891 61.5146 12.6133 61.6709 12.418C61.8467 12.2031 62.0518 11.9492 62.2861 11.6562C62.4619 11.6367 62.5986 11.627 62.6963 11.627C62.8135 11.627 62.9795 11.6074 63.1943 11.5684C63.3506 11.2949 63.4873 11.0898 63.6045 10.9531C63.7412 10.8164 63.9365 10.6699 64.1904 10.5137C64.4248 10.6309 64.6787 10.709 64.9521 10.748C65.2451 10.7871 65.499 10.9141 65.7139 11.1289C65.7334 11.3242 65.792 11.4805 65.8896 11.5977C65.9873 11.6953 66.0947 11.793 66.2119 11.8906C66.3291 11.9688 66.4365 12.0566 66.5342 12.1543C66.6514 12.252 66.7295 12.3887 66.7686 12.5645C66.8467 12.584 66.8955 12.5742 66.915 12.5352C66.9541 12.4961 67.0127 12.4863 67.0908 12.5059C67.1494 12.7793 67.2178 12.9648 67.2959 13.0625C67.374 13.1406 67.4521 13.3066 67.5303 13.5605C67.4326 13.7559 67.3545 13.9609 67.2959 14.1758C67.2568 14.3711 67.1396 14.5176 66.9443 14.6152C66.9248 14.752 66.9639 14.8301 67.0615 14.8496C67.1592 14.8496 67.2178 14.8984 67.2373 14.9961C67.2568 15.1719 67.2275 15.2988 67.1494 15.377C67.6182 16.1387 68.0381 16.9492 68.4092 17.8086C68.7803 18.6484 69.2002 19.4492 69.6689 20.2109ZM66.0068 22.9941C66.085 22.7793 66.1826 22.6035 66.2998 22.4668C66.4365 22.3301 66.5146 22.125 66.5342 21.8516C66.4365 21.6953 66.3779 21.5781 66.3584 21.5C66.3389 21.4023 66.3291 21.2559 66.3291 21.0605C65.8994 20.4551 65.5283 19.8105 65.2158 19.127C64.9033 18.4238 64.5518 17.7695 64.1611 17.1641C64.1221 17.2422 64.0537 17.3203 63.9561 17.3984C63.8584 17.4766 63.751 17.457 63.6338 17.3398C63.5947 17.4961 63.5264 17.6133 63.4287 17.6914C63.3311 17.75 63.2236 17.7793 63.1064 17.7793C62.9893 17.7598 62.8623 17.7305 62.7256 17.6914C62.6084 17.6328 62.501 17.5645 62.4033 17.4863C61.8369 17.9355 61.2705 18.375 60.7041 18.8047C60.1377 19.2344 59.6299 19.7324 59.1807 20.2988C59.1025 20.3379 59.0537 20.3574 59.0342 20.3574C59.0146 20.3379 58.9561 20.3477 58.8584 20.3867C58.7021 20.7578 58.5068 21.0996 58.2725 21.4121C58.0576 21.7051 57.8428 22.0078 57.6279 22.3203C57.4131 22.6328 57.2275 22.9648 57.0713 23.3164C56.915 23.668 56.8271 24.0781 56.8076 24.5469C57.1396 24.8203 57.5303 24.9863 57.9795 25.0449C58.4287 25.1035 58.8877 25.1133 59.3564 25.0742C59.8447 25.0352 60.3135 24.9766 60.7627 24.8984C61.2314 24.8008 61.6611 24.752 62.0518 24.752C62.8721 24.5566 63.5752 24.3027 64.1611 23.9902C64.7471 23.6582 65.3623 23.3262 66.0068 22.9941ZM68.4092 4.71289C68.2529 4.75195 67.9893 4.88867 67.6182 5.12305C67.2666 5.35742 66.8076 5.72852 66.2412 6.23633C65.9482 6.49023 65.5967 6.8125 65.1865 7.20312C64.7764 7.57422 64.3271 7.94531 63.8389 8.31641C63.3701 8.66797 62.8818 8.98047 62.374 9.25391C61.8662 9.52734 61.3779 9.67383 60.9092 9.69336C60.7725 9.55664 60.6357 9.41992 60.499 9.2832C60.3623 9.14648 60.2451 9.00977 60.1475 8.87305C60.0693 8.73633 60.0205 8.58984 60.001 8.43359C59.9814 8.27734 60.0303 8.10156 60.1475 7.90625C59.8936 7.49609 59.7861 7.18359 59.8252 6.96875C59.8643 6.75391 59.9619 6.56836 60.1182 6.41211C60.2939 6.25586 60.4795 6.10937 60.6748 5.97266C60.8896 5.83594 61.0361 5.63086 61.1143 5.35742C61.5635 4.86914 62.0518 4.37109 62.5791 3.86328C63.126 3.33594 63.6338 2.80859 64.1025 2.28125C64.2979 2.24219 64.4834 2.1543 64.6592 2.01758C64.8545 1.86133 65.04 1.69531 65.2158 1.51953C65.3916 1.34375 65.5674 1.16797 65.7432 0.992188C65.9385 0.796875 66.1436 0.640625 66.3584 0.523438C66.3975 0.640625 66.5049 0.757812 66.6807 0.875C66.876 0.972656 67.0225 0.992188 67.1201 0.933594C67.1396 1.14844 67.2471 1.36328 67.4424 1.57812C67.6377 1.77344 67.8135 1.91016 67.9697 1.98828C68.0869 2.26172 68.2041 2.51562 68.3213 2.75C68.4385 2.96484 68.5264 3.17969 68.585 3.39453C68.6436 3.60938 68.6631 3.82422 68.6436 4.03906C68.6436 4.25391 68.5654 4.47852 68.4092 4.71289ZM97.0029 21.0898C96.9834 21.1875 96.9639 21.2754 96.9443 21.3535C96.9248 21.4121 96.9053 21.4707 96.8857 21.5293C96.8662 21.5879 96.8564 21.666 96.8564 21.7637C96.8564 21.8418 96.8564 21.9492 96.8564 22.0859C96.2705 23.1211 95.5283 23.9902 94.6299 24.6934C93.751 25.3965 92.7744 26.0215 91.7002 26.5684C90.6455 27.0957 89.542 27.584 88.3896 28.0332C87.2373 28.4629 86.1143 28.9316 85.0205 29.4395C84.5518 29.3223 84.1904 29.127 83.9365 28.8535C83.7021 28.5801 83.5166 28.2676 83.3799 27.916C83.2627 27.5449 83.1748 27.1445 83.1162 26.7148C83.0771 26.2656 83.0381 25.8066 82.999 25.3379C83.0576 25.123 83.1357 24.9473 83.2334 24.8105C83.3506 24.6543 83.4092 24.4395 83.4092 24.166C83.5654 23.6582 83.7217 23.1602 83.8779 22.6719C84.0342 22.1836 84.1318 21.6855 84.1709 21.1777C84.2295 21.0215 84.3369 20.9141 84.4932 20.8555C84.5908 19.918 84.5908 18.9707 84.4932 18.0137C84.415 17.0371 84.2588 16.1289 84.0244 15.2891C84.0439 15.0938 84.0635 14.957 84.083 14.8789C84.1221 14.7812 84.1221 14.7129 84.083 14.6738C84.0635 14.5176 84.1123 14.4395 84.2295 14.4395C84.3662 14.4395 84.5029 14.4395 84.6396 14.4395C84.6396 14.1465 84.5811 13.8535 84.4639 13.5605C84.3662 13.2676 84.2686 12.9355 84.1709 12.5645C84.3076 12.2715 84.3955 11.9883 84.4346 11.7148C84.4736 11.4219 84.5615 11.168 84.6982 10.9531C85.7529 11.2852 86.7588 11.6855 87.7158 12.1543C88.6924 12.623 89.6494 12.9648 90.5869 13.1797C91.29 13.6875 92.0127 14.1953 92.7549 14.7031C93.4971 15.1914 94.1709 15.7383 94.7764 16.3438C95.3818 16.9297 95.8896 17.6035 96.2998 18.3652C96.71 19.127 96.9443 20.0352 97.0029 21.0898ZM90.0596 22.7012C90.4697 22.5449 90.8701 22.3789 91.2607 22.2031C91.6709 22.0273 92.042 21.832 92.374 21.6172C92.7256 21.3828 93.0381 21.1191 93.3115 20.8262C93.585 20.5332 93.8096 20.1816 93.9854 19.7715C93.8682 19.5371 93.7119 19.332 93.5166 19.1562C93.3213 18.9609 93.126 18.7852 92.9307 18.6289C92.7354 18.4531 92.54 18.2773 92.3447 18.1016C92.1689 17.9258 92.0225 17.7109 91.9053 17.457C91.6514 17.418 91.4268 17.3496 91.2314 17.252C91.0361 17.1348 90.8408 17.0273 90.6455 16.9297C90.4697 16.8125 90.2744 16.7051 90.0596 16.6074C89.8643 16.5098 89.6299 16.4512 89.3564 16.4316C88.9268 16.2168 88.5361 16.0605 88.1846 15.9629C87.8525 15.8652 87.5986 15.7383 87.4229 15.582C87.2861 15.582 87.1787 15.6113 87.1006 15.6699C87.2959 16.4121 87.4424 17.1152 87.54 17.7793C87.6377 18.4238 87.6865 19.0781 87.6865 19.7422C87.7061 20.3867 87.6768 21.0508 87.5986 21.7344C87.5205 22.418 87.4131 23.1602 87.2764 23.9609C87.4717 23.9414 87.6475 23.9023 87.8037 23.8438C87.9795 23.7656 88.1455 23.6875 88.3018 23.6094C88.4775 23.5312 88.6533 23.4629 88.8291 23.4043C89.0244 23.3262 89.249 23.2773 89.5029 23.2578C89.5615 23.1406 89.6396 23.043 89.7373 22.9648C89.8545 22.8867 89.9619 22.7988 90.0596 22.7012ZM113.526 12.5059C113.546 12.6426 113.546 12.75 113.526 12.8281C113.526 12.8867 113.517 12.9453 113.497 13.0039C113.497 13.0625 113.497 13.1309 113.497 13.209C113.497 13.2676 113.517 13.3652 113.556 13.502C113.146 14.166 112.667 14.625 112.12 14.8789C111.593 15.1133 111.017 15.2891 110.392 15.4062C109.767 15.5039 109.122 15.6113 108.458 15.7285C107.813 15.8457 107.169 16.0996 106.524 16.4902C106.271 16.3926 106.036 16.3926 105.821 16.4902C105.626 16.5879 105.333 16.6172 104.942 16.5781C104.825 16.6953 104.679 16.7832 104.503 16.8418C104.327 16.8809 104.151 16.9297 103.976 16.9883C104.054 17.1641 104.083 17.3496 104.063 17.5449C104.063 17.7207 104.093 17.8672 104.151 17.9844C104.835 18.043 105.587 18.0332 106.407 17.9551C107.247 17.877 108.067 17.8281 108.868 17.8086C108.888 17.9062 108.878 17.9746 108.839 18.0137C108.8 18.0332 108.79 18.082 108.81 18.1602C108.946 18.2578 109.083 18.3848 109.22 18.541C109.356 18.6777 109.493 18.8145 109.63 18.9512C109.767 19.0879 109.903 19.2051 110.04 19.3027C110.196 19.3809 110.372 19.4102 110.567 19.3906C110.646 19.5469 110.694 19.7227 110.714 19.918C110.753 20.0938 110.733 20.2793 110.655 20.4746C110.343 20.6895 110.03 20.9141 109.718 21.1484C109.405 21.3633 109.073 21.5586 108.722 21.7344C108.39 21.9102 108.028 22.0566 107.638 22.1738C107.267 22.2715 106.847 22.3105 106.378 22.291C106.28 22.291 106.202 22.291 106.144 22.291C106.104 22.291 106.046 22.2617 105.968 22.2031C105.812 22.3008 105.587 22.3301 105.294 22.291C105.021 22.252 104.806 22.2812 104.649 22.3789C104.435 22.2812 104.171 22.2422 103.858 22.2617C103.565 22.2617 103.302 22.2227 103.067 22.1445C102.755 22.5547 102.472 22.9941 102.218 23.4629C101.964 23.9316 101.739 24.4297 101.544 24.957C102.208 25.0547 102.755 25.0938 103.185 25.0742C103.634 25.0547 104.054 25.0254 104.444 24.9863C104.835 24.9277 105.235 24.8789 105.646 24.8398C106.056 24.7812 106.573 24.7617 107.198 24.7812C107.589 24.5664 108.048 24.4297 108.575 24.3711C109.122 24.293 109.62 24.1758 110.069 24.0195C110.226 24.0781 110.362 24.1855 110.479 24.3418C110.597 24.4785 110.704 24.6152 110.802 24.752C110.919 24.8691 111.036 24.9766 111.153 25.0742C111.271 25.1719 111.417 25.2109 111.593 25.1914C111.671 25.2695 111.72 25.3672 111.739 25.4844C111.778 25.582 111.808 25.6797 111.827 25.7773C111.847 25.875 111.876 25.9629 111.915 26.041C111.974 26.0996 112.062 26.1191 112.179 26.0996C111.886 26.7441 111.544 27.2422 111.153 27.5938C110.782 27.9258 110.353 28.1797 109.864 28.3555C109.376 28.5312 108.829 28.668 108.224 28.7656C107.638 28.8633 106.983 28.9805 106.261 29.1172C106.085 29.1562 105.938 29.1465 105.821 29.0879C105.704 29.0488 105.567 29.0293 105.411 29.0293C104.962 29.127 104.425 29.2148 103.8 29.293C103.175 29.3711 102.54 29.4004 101.896 29.3809C101.251 29.3613 100.636 29.2734 100.05 29.1172C99.4639 28.9805 98.9854 28.7266 98.6143 28.3555C98.458 28.2188 98.3506 28.0625 98.292 27.8867C98.2529 27.6914 98.126 27.5449 97.9111 27.4473C97.8916 27.1934 97.8525 26.9102 97.7939 26.5977C97.7354 26.2852 97.6768 25.9629 97.6182 25.6309C97.5596 25.2793 97.5107 24.9375 97.4717 24.6055C97.4521 24.2734 97.4717 23.9707 97.5303 23.6973C97.5889 23.4043 97.7061 23.1406 97.8818 22.9062C98.0771 22.6719 98.1455 22.418 98.0869 22.1445C98.1846 22.125 98.2432 22.0762 98.2627 21.998C98.2822 21.9004 98.3604 21.8613 98.4971 21.8809C98.6143 21.5293 98.7412 21.1973 98.8779 20.8848C99.0146 20.5723 99.1514 20.2695 99.2881 19.9766C99.4443 19.6836 99.5908 19.3906 99.7275 19.0977C99.8838 18.7852 100.03 18.4434 100.167 18.0723C99.8936 17.8184 99.6885 17.5449 99.5518 17.252C99.4346 16.9395 99.3467 16.6367 99.2881 16.3438C99.2295 16.0312 99.1807 15.7188 99.1416 15.4062C99.1025 15.0742 99.0342 14.7422 98.9365 14.4102C99.1318 14.1172 99.3662 13.8828 99.6396 13.707C99.9326 13.5117 100.245 13.3555 100.577 13.2383C100.909 13.1211 101.271 13.0234 101.661 12.9453C102.052 12.8672 102.462 12.7793 102.892 12.6816C103.673 12.4277 104.366 12.2324 104.972 12.0957C105.597 11.959 106.202 11.8516 106.788 11.7734C107.394 11.6758 108.019 11.5879 108.663 11.5098C109.308 11.4316 110.04 11.3145 110.86 11.1582C111.036 11.334 111.202 11.4219 111.358 11.4219C111.437 11.2461 111.524 11.1973 111.622 11.2754C111.739 11.334 111.788 11.2754 111.769 11.0996C111.964 11.4316 112.208 11.7148 112.501 11.9492C112.813 12.1641 113.155 12.3496 113.526 12.5059ZM10.0352 56.3516C9.76172 56.1758 9.54688 55.9512 9.39062 55.6777C9.21484 55.4043 9.07812 55.1113 8.98047 54.7988C8.86328 54.4863 8.77539 54.1641 8.7168 53.832C8.63867 53.4805 8.56055 53.1484 8.48242 52.8359C8.48242 52.5625 8.54102 52.3672 8.6582 52.25C8.77539 52.1133 8.90234 51.9863 9.03906 51.8691C9.50781 51.8496 9.92773 51.8105 10.2988 51.752C10.6699 51.6934 11.0312 51.6348 11.3828 51.5762C11.7344 51.5176 12.0859 51.4688 12.4375 51.4297C12.7891 51.3711 13.1699 51.3418 13.5801 51.3418C13.873 50.7363 14.1465 50.1602 14.4004 49.6133C14.6543 49.0469 14.8984 48.5098 15.1328 48.002C15.25 47.5137 15.3965 47.0645 15.5723 46.6543C15.7676 46.2246 15.9531 45.8242 16.1289 45.4531C16.3047 45.0625 16.4609 44.6816 16.5977 44.3105C16.7344 43.9199 16.8223 43.5098 16.8613 43.0801C17.0957 42.3965 17.3008 41.7715 17.4766 41.2051C17.6719 40.6191 17.8184 39.9258 17.916 39.125C17.1738 39.2422 16.5781 39.3594 16.1289 39.4766C15.6797 39.5742 15.3574 39.6719 15.1621 39.7695C14.7715 39.75 14.459 39.6719 14.2246 39.5352C14.0098 39.3984 13.834 39.2324 13.6973 39.0371C13.5605 38.8418 13.4434 38.6172 13.3457 38.3633C13.248 38.1094 13.1309 37.8457 12.9941 37.5723C13.0723 37.3965 13.0918 37.1426 13.0527 36.8105C13.0137 36.459 12.8965 36.2051 12.7012 36.0488C12.8574 36.0098 12.9746 35.8828 13.0527 35.668C13.1309 35.4336 13.1406 35.2578 13.082 35.1406C13.4141 35.043 13.7656 34.9844 14.1367 34.9648C14.5078 34.9258 14.8691 34.8965 15.2207 34.877C15.5918 34.8379 15.9434 34.7988 16.2754 34.7598C16.6074 34.7012 16.8906 34.5938 17.125 34.4375C18.1406 34.3984 19.1953 34.3594 20.2891 34.3203C21.4023 34.2812 22.4277 34.2324 23.3652 34.1738C23.7168 34.291 24.1172 34.3496 24.5664 34.3496C25.0352 34.3496 25.4941 34.3789 25.9434 34.4375C26.4121 34.4961 26.8223 34.623 27.1738 34.8184C27.5449 35.0137 27.7988 35.3555 27.9355 35.8438C28.2285 35.8828 28.4434 35.9609 28.5801 36.0781C28.7363 36.1953 28.834 36.3418 28.873 36.5176C28.9121 36.6738 28.9219 36.8594 28.9023 37.0742C28.9023 37.2695 28.9023 37.4648 28.9023 37.6602C28.5898 37.8945 28.1895 38.0898 27.7012 38.2461C27.2324 38.3828 26.7148 38.5 26.1484 38.5977C25.582 38.6758 24.9863 38.7344 24.3613 38.7734C23.7559 38.793 23.1602 38.8125 22.5742 38.832C22.4766 39.4766 22.3008 40.2383 22.0469 41.1172C21.8125 41.9766 21.5684 42.8262 21.3145 43.666C21.0605 44.4863 20.8359 45.2285 20.6406 45.8926C20.4648 46.5371 20.3867 46.957 20.4062 47.1523C20.2109 47.6016 20.0449 47.9824 19.9082 48.2949C19.791 48.6074 19.6738 48.9004 19.5566 49.1738C19.459 49.4473 19.3516 49.7207 19.2344 49.9941C19.1367 50.248 19.0098 50.541 18.8535 50.873H20.8457C20.8848 51.0879 20.9727 51.2344 21.1094 51.3125C21.2461 51.3906 21.3926 51.459 21.5488 51.5176C21.7051 51.5762 21.8418 51.6543 21.959 51.752C22.0957 51.8301 22.1641 51.9668 22.1641 52.1621C22.5352 52.2598 22.7695 52.4062 22.8672 52.6016C22.9648 52.7969 22.9844 53.0117 22.9258 53.2461C22.8867 53.4609 22.7891 53.6855 22.6328 53.9199C22.4961 54.1543 22.3594 54.3594 22.2227 54.5352C22.0469 54.4961 21.8809 54.5449 21.7246 54.6816C21.5684 54.7988 21.4219 54.9355 21.2852 55.0918C20.7188 55.0137 20.1621 55.0039 19.6152 55.0625C19.0684 55.1211 18.5605 55.1699 18.0918 55.209C17.9941 55.2285 17.9551 55.2871 17.9746 55.3848C17.9941 55.4629 17.9746 55.5215 17.916 55.5605C17.3105 55.3652 16.6855 55.2871 16.041 55.3262C15.416 55.3652 14.7715 55.4629 14.1074 55.6191C13.4629 55.7559 12.7988 55.9023 12.1152 56.0586C11.4316 56.2344 10.7383 56.332 10.0352 56.3516ZM39.4492 48.0898C39.4297 48.1875 39.4102 48.2754 39.3906 48.3535C39.3711 48.4121 39.3516 48.4707 39.332 48.5293C39.3125 48.5879 39.3027 48.666 39.3027 48.7637C39.3027 48.8418 39.3027 48.9492 39.3027 49.0859C38.7168 50.1211 37.9746 50.9902 37.0762 51.6934C36.1973 52.3965 35.2207 53.0215 34.1465 53.5684C33.0918 54.0957 31.9883 54.584 30.8359 55.0332C29.6836 55.4629 28.5605 55.9316 27.4668 56.4395C26.998 56.3223 26.6367 56.127 26.3828 55.8535C26.1484 55.5801 25.9629 55.2676 25.8262 54.916C25.709 54.5449 25.6211 54.1445 25.5625 53.7148C25.5234 53.2656 25.4844 52.8066 25.4453 52.3379C25.5039 52.123 25.582 51.9473 25.6797 51.8105C25.7969 51.6543 25.8555 51.4395 25.8555 51.166C26.0117 50.6582 26.168 50.1602 26.3242 49.6719C26.4805 49.1836 26.5781 48.6855 26.6172 48.1777C26.6758 48.0215 26.7832 47.9141 26.9395 47.8555C27.0371 46.918 27.0371 45.9707 26.9395 45.0137C26.8613 44.0371 26.7051 43.1289 26.4707 42.2891C26.4902 42.0938 26.5098 41.957 26.5293 41.8789C26.5684 41.7812 26.5684 41.7129 26.5293 41.6738C26.5098 41.5176 26.5586 41.4395 26.6758 41.4395C26.8125 41.4395 26.9492 41.4395 27.0859 41.4395C27.0859 41.1465 27.0273 40.8535 26.9102 40.5605C26.8125 40.2676 26.7148 39.9355 26.6172 39.5645C26.7539 39.2715 26.8418 38.9883 26.8809 38.7148C26.9199 38.4219 27.0078 38.168 27.1445 37.9531C28.1992 38.2852 29.2051 38.6855 30.1621 39.1543C31.1387 39.623 32.0957 39.9648 33.0332 40.1797C33.7363 40.6875 34.459 41.1953 35.2012 41.7031C35.9434 42.1914 36.6172 42.7383 37.2227 43.3438C37.8281 43.9297 38.3359 44.6035 38.7461 45.3652C39.1562 46.127 39.3906 47.0352 39.4492 48.0898ZM32.5059 49.7012C32.916 49.5449 33.3164 49.3789 33.707 49.2031C34.1172 49.0273 34.4883 48.832 34.8203 48.6172C35.1719 48.3828 35.4844 48.1191 35.7578 47.8262C36.0312 47.5332 36.2559 47.1816 36.4316 46.7715C36.3145 46.5371 36.1582 46.332 35.9629 46.1562C35.7676 45.9609 35.5723 45.7852 35.377 45.6289C35.1816 45.4531 34.9863 45.2773 34.791 45.1016C34.6152 44.9258 34.4688 44.7109 34.3516 44.457C34.0977 44.418 33.873 44.3496 33.6777 44.252C33.4824 44.1348 33.2871 44.0273 33.0918 43.9297C32.916 43.8125 32.7207 43.7051 32.5059 43.6074C32.3105 43.5098 32.0762 43.4512 31.8027 43.4316C31.373 43.2168 30.9824 43.0605 30.6309 42.9629C30.2988 42.8652 30.0449 42.7383 29.8691 42.582C29.7324 42.582 29.625 42.6113 29.5469 42.6699C29.7422 43.4121 29.8887 44.1152 29.9863 44.7793C30.084 45.4238 30.1328 46.0781 30.1328 46.7422C30.1523 47.3867 30.123 48.0508 30.0449 48.7344C29.9668 49.418 29.8594 50.1602 29.7227 50.9609C29.918 50.9414 30.0938 50.9023 30.25 50.8438C30.4258 50.7656 30.5918 50.6875 30.748 50.6094C30.9238 50.5312 31.0996 50.4629 31.2754 50.4043C31.4707 50.3262 31.6953 50.2773 31.9492 50.2578C32.0078 50.1406 32.0859 50.043 32.1836 49.9648C32.3008 49.8867 32.4082 49.7988 32.5059 49.7012ZM55.9727 39.5059C55.9922 39.6426 55.9922 39.75 55.9727 39.8281C55.9727 39.8867 55.9629 39.9453 55.9434 40.0039C55.9434 40.0625 55.9434 40.1309 55.9434 40.209C55.9434 40.2676 55.9629 40.3652 56.002 40.502C55.5918 41.166 55.1133 41.625 54.5664 41.8789C54.0391 42.1133 53.4629 42.2891 52.8379 42.4062C52.2129 42.5039 51.5684 42.6113 50.9043 42.7285C50.2598 42.8457 49.6152 43.0996 48.9707 43.4902C48.7168 43.3926 48.4824 43.3926 48.2676 43.4902C48.0723 43.5879 47.7793 43.6172 47.3887 43.5781C47.2715 43.6953 47.125 43.7832 46.9492 43.8418C46.7734 43.8809 46.5977 43.9297 46.4219 43.9883C46.5 44.1641 46.5293 44.3496 46.5098 44.5449C46.5098 44.7207 46.5391 44.8672 46.5977 44.9844C47.2812 45.043 48.0332 45.0332 48.8535 44.9551C49.6934 44.877 50.5137 44.8281 51.3145 44.8086C51.334 44.9062 51.3242 44.9746 51.2852 45.0137C51.2461 45.0332 51.2363 45.082 51.2559 45.1602C51.3926 45.2578 51.5293 45.3848 51.666 45.541C51.8027 45.6777 51.9395 45.8145 52.0762 45.9512C52.2129 46.0879 52.3496 46.2051 52.4863 46.3027C52.6426 46.3809 52.8184 46.4102 53.0137 46.3906C53.0918 46.5469 53.1406 46.7227 53.1602 46.918C53.1992 47.0938 53.1797 47.2793 53.1016 47.4746C52.7891 47.6895 52.4766 47.9141 52.1641 48.1484C51.8516 48.3633 51.5195 48.5586 51.168 48.7344C50.8359 48.9102 50.4746 49.0566 50.084 49.1738C49.7129 49.2715 49.293 49.3105 48.8242 49.291C48.7266 49.291 48.6484 49.291 48.5898 49.291C48.5508 49.291 48.4922 49.2617 48.4141 49.2031C48.2578 49.3008 48.0332 49.3301 47.7402 49.291C47.4668 49.252 47.252 49.2812 47.0957 49.3789C46.8809 49.2812 46.6172 49.2422 46.3047 49.2617C46.0117 49.2617 45.748 49.2227 45.5137 49.1445C45.2012 49.5547 44.918 49.9941 44.6641 50.4629C44.4102 50.9316 44.1855 51.4297 43.9902 51.957C44.6543 52.0547 45.2012 52.0938 45.6309 52.0742C46.0801 52.0547 46.5 52.0254 46.8906 51.9863C47.2812 51.9277 47.6816 51.8789 48.0918 51.8398C48.502 51.7812 49.0195 51.7617 49.6445 51.7812C50.0352 51.5664 50.4941 51.4297 51.0215 51.3711C51.5684 51.293 52.0664 51.1758 52.5156 51.0195C52.6719 51.0781 52.8086 51.1855 52.9258 51.3418C53.043 51.4785 53.1504 51.6152 53.248 51.752C53.3652 51.8691 53.4824 51.9766 53.5996 52.0742C53.7168 52.1719 53.8633 52.2109 54.0391 52.1914C54.1172 52.2695 54.166 52.3672 54.1855 52.4844C54.2246 52.582 54.2539 52.6797 54.2734 52.7773C54.293 52.875 54.3223 52.9629 54.3613 53.041C54.4199 53.0996 54.5078 53.1191 54.625 53.0996C54.332 53.7441 53.9902 54.2422 53.5996 54.5938C53.2285 54.9258 52.7988 55.1797 52.3105 55.3555C51.8223 55.5312 51.2754 55.668 50.6699 55.7656C50.084 55.8633 49.4297 55.9805 48.707 56.1172C48.5312 56.1562 48.3848 56.1465 48.2676 56.0879C48.1504 56.0488 48.0137 56.0293 47.8574 56.0293C47.4082 56.127 46.8711 56.2148 46.2461 56.293C45.6211 56.3711 44.9863 56.4004 44.3418 56.3809C43.6973 56.3613 43.082 56.2734 42.4961 56.1172C41.9102 55.9805 41.4316 55.7266 41.0605 55.3555C40.9043 55.2188 40.7969 55.0625 40.7383 54.8867C40.6992 54.6914 40.5723 54.5449 40.3574 54.4473C40.3379 54.1934 40.2988 53.9102 40.2402 53.5977C40.1816 53.2852 40.123 52.9629 40.0645 52.6309C40.0059 52.2793 39.957 51.9375 39.918 51.6055C39.8984 51.2734 39.918 50.9707 39.9766 50.6973C40.0352 50.4043 40.1523 50.1406 40.3281 49.9062C40.5234 49.6719 40.5918 49.418 40.5332 49.1445C40.6309 49.125 40.6895 49.0762 40.709 48.998C40.7285 48.9004 40.8066 48.8613 40.9434 48.8809C41.0605 48.5293 41.1875 48.1973 41.3242 47.8848C41.4609 47.5723 41.5977 47.2695 41.7344 46.9766C41.8906 46.6836 42.0371 46.3906 42.1738 46.0977C42.3301 45.7852 42.4766 45.4434 42.6133 45.0723C42.3398 44.8184 42.1348 44.5449 41.998 44.252C41.8809 43.9395 41.793 43.6367 41.7344 43.3438C41.6758 43.0312 41.627 42.7188 41.5879 42.4062C41.5488 42.0742 41.4805 41.7422 41.3828 41.4102C41.5781 41.1172 41.8125 40.8828 42.0859 40.707C42.3789 40.5117 42.6914 40.3555 43.0234 40.2383C43.3555 40.1211 43.7168 40.0234 44.1074 39.9453C44.498 39.8672 44.9082 39.7793 45.3379 39.6816C46.1191 39.4277 46.8125 39.2324 47.418 39.0957C48.043 38.959 48.6484 38.8516 49.2344 38.7734C49.8398 38.6758 50.4648 38.5879 51.1094 38.5098C51.7539 38.4316 52.4863 38.3145 53.3066 38.1582C53.4824 38.334 53.6484 38.4219 53.8047 38.4219C53.8828 38.2461 53.9707 38.1973 54.0684 38.2754C54.1855 38.334 54.2344 38.2754 54.2148 38.0996C54.4102 38.4316 54.6543 38.7148 54.9473 38.9492C55.2598 39.1641 55.6016 39.3496 55.9727 39.5059ZM61.4805 53.9492C61.5781 54.5352 61.5391 54.9941 61.3633 55.3262C61.207 55.6582 60.9727 55.9023 60.6602 56.0586C60.3672 56.2344 60.0254 56.332 59.6348 56.3516C59.2441 56.3711 58.873 56.3516 58.5215 56.293C58.3262 56.0195 58.1504 55.6777 57.9941 55.2676C57.8379 54.8574 57.6914 54.4375 57.5547 54.0078C57.418 53.5586 57.291 53.1191 57.1738 52.6895C57.0762 52.2598 56.9883 51.8789 56.9102 51.5469C57.0078 51.3125 57.0664 51.0488 57.0859 50.7559C57.125 50.4434 57.1445 50.1309 57.1445 49.8184C57.1641 49.5059 57.1738 49.1934 57.1738 48.8809C57.1934 48.5488 57.2227 48.2363 57.2617 47.9434C57.3984 47.123 57.5938 46.3418 57.8477 45.5996C58.1211 44.8574 58.3359 44.0859 58.4922 43.2852C58.5312 43.1094 58.5117 42.9434 58.4336 42.7871C58.375 42.6309 58.3652 42.4844 58.4043 42.3477C58.4238 42.2695 58.4824 42.2207 58.5801 42.2012C58.6777 42.1621 58.7363 42.0938 58.7559 41.9961C58.8145 41.7812 58.8242 41.6055 58.7852 41.4688C58.7656 41.332 58.8047 41.166 58.9023 40.9707C59 40.8145 59.1172 40.5898 59.2539 40.2969C59.4102 39.9844 59.4688 39.6621 59.4297 39.3301C59.6055 39.2129 59.7715 39.0762 59.9277 38.9199C60.084 38.7637 60.2402 38.627 60.3965 38.5098C60.5723 38.373 60.7578 38.2559 60.9531 38.1582C61.168 38.0605 61.4219 38.0117 61.7148 38.0117C61.8711 38.207 61.9688 38.4219 62.0078 38.6562C62.0664 38.8906 62.1152 39.125 62.1543 39.3594C62.2129 39.5938 62.291 39.8184 62.3887 40.0332C62.4863 40.2285 62.6523 40.3848 62.8867 40.502C62.8867 40.6582 62.8867 40.8535 62.8867 41.0879C62.8867 41.3223 62.8965 41.5566 62.916 41.791C62.9355 42.0059 62.9746 42.2109 63.0332 42.4062C63.1113 42.582 63.2285 42.6992 63.3848 42.7578C63.0332 43.6953 62.7012 44.623 62.3887 45.541C62.0957 46.459 61.8516 47.3867 61.6562 48.3242C61.4609 49.2422 61.334 50.1699 61.2754 51.1074C61.2363 52.0449 61.3047 52.9922 61.4805 53.9492ZM80.377 53.5391C80.2598 53.8711 80.084 54.2129 79.8496 54.5645C79.6348 54.8965 79.3711 55.1992 79.0586 55.4727C78.7656 55.7266 78.4336 55.9414 78.0625 56.1172C77.6914 56.293 77.3008 56.3906 76.8906 56.4102C76.6367 56.3516 76.4609 56.2832 76.3633 56.2051C76.2852 56.1465 76.1973 56.0879 76.0996 56.0293C76.041 55.9902 75.9824 55.9609 75.9238 55.9414C75.8848 55.9023 75.8457 55.873 75.8066 55.8535L75.4551 55.707L75.5723 55.3262C75.6113 55.1699 75.6016 55.0527 75.543 54.9746C75.4844 54.877 75.3672 54.75 75.1914 54.5938C75.1328 54.5352 75.0742 54.4766 75.0156 54.418C74.957 54.3594 74.9082 54.3008 74.8691 54.2422L74.3711 53.6855L75.1621 53.4805C75.6504 53.3438 75.9727 53.168 76.1289 52.9531C76.3047 52.7383 76.373 52.377 76.334 51.8691C75.9434 51.791 75.6113 51.7812 75.3379 51.8398C75.084 51.8984 74.8203 51.9668 74.5469 52.0449C74.1953 52.1426 73.834 52.2305 73.4629 52.3086C73.1113 52.3672 72.7207 52.3965 72.291 52.3965C72.1348 52.3965 71.9883 52.3965 71.8516 52.3965C71.7148 52.377 71.5684 52.3574 71.4121 52.3379L71.1191 52.2793C71.0801 52.0645 71.041 51.9473 71.002 51.9277C70.9629 51.8887 70.9238 51.8496 70.8848 51.8105C70.7871 51.7129 70.6797 51.5859 70.5625 51.4297C70.4648 51.2539 70.4453 51.0391 70.5039 50.7852C70.4062 50.6094 70.3477 50.4336 70.3281 50.2578C70.2109 50.4922 70.123 50.7363 70.0645 50.9902L69.9473 51.2832L69.6543 51.3418C69.6152 51.3613 69.5859 51.4102 69.5664 51.4883C69.5469 51.5469 69.5371 51.5957 69.5371 51.6348L69.3906 52.1328C69.3516 52.1719 69.3125 52.2109 69.2734 52.25C69.2344 52.2695 69.1953 52.2988 69.1562 52.3379C69.1172 52.5137 69.0684 52.6895 69.0098 52.8652C68.9512 53.041 68.8926 53.207 68.834 53.3633C68.7363 53.6172 68.6484 53.8711 68.5703 54.125C68.5117 54.3594 68.4922 54.5938 68.5117 54.8281L68.3945 55.1504C68.2969 55.2676 68.1895 55.3652 68.0723 55.4434C67.9551 55.502 67.8379 55.5605 67.7207 55.6191C67.6816 55.6582 67.623 55.6973 67.5449 55.7363C67.4863 55.7559 67.4375 55.7754 67.3984 55.7949L67.3105 56.1172L66.959 56.1758C66.7441 56.2148 66.5879 56.2441 66.4902 56.2637C66.4121 56.2832 66.3145 56.293 66.1973 56.293L65.9043 56.2637C65.6895 56.0879 65.5234 55.9512 65.4062 55.8535C65.2891 55.7363 65.1523 55.6289 64.9961 55.5312C64.8203 55.2969 64.7227 55.1211 64.7031 55.0039C64.6836 54.8867 64.6641 54.7793 64.6445 54.6816C64.6055 54.5645 64.5859 54.4668 64.5859 54.3887C64.5664 54.3105 64.5371 54.252 64.498 54.2129L64.1172 53.8613L64.4395 53.5977L64.4688 53.0996C64.8594 52.1035 65.2695 51.1465 65.6992 50.2285C66.1484 49.3105 66.6074 48.373 67.0762 47.416C67.2324 47.1035 67.3789 46.791 67.5156 46.4785C67.6719 46.166 67.8281 45.8535 67.9844 45.541C67.9648 45.4824 67.9551 45.4141 67.9551 45.3359C67.9551 45.2578 67.9746 45.1699 68.0137 45.0723C68.2285 44.7402 68.4043 44.4473 68.541 44.1934C68.6777 43.9199 68.8145 43.6465 68.9512 43.373C69.1074 43.041 69.2637 42.7188 69.4199 42.4062C69.5957 42.0938 69.8105 41.7715 70.0645 41.4395L70.5332 41.2344C70.5918 41.2148 70.6602 41.1953 70.7383 41.1758C70.8164 41.1367 70.9043 41.1172 71.002 41.1172L71.4414 41.1758C71.9883 40.9219 72.4668 40.5703 72.877 40.1211C73.2871 39.6523 73.707 39.0957 74.1367 38.4512L74.4297 38.041L74.8105 38.2754C74.9082 38.334 75.0449 38.3926 75.2207 38.4512C75.3965 38.4902 75.582 38.5391 75.7773 38.5977C76.1289 38.6758 76.4609 38.7637 76.7734 38.8613C77.0859 38.959 77.3398 39.1055 77.5352 39.3008C77.6523 39.6133 77.7207 39.8477 77.7402 40.0039C77.7598 40.1602 77.7891 40.3164 77.8281 40.4727C77.8867 40.8047 77.9355 41.1367 77.9746 41.4688C78.0332 41.8008 78.0723 42.1719 78.0918 42.582C78.1895 42.9141 78.2676 43.2461 78.3262 43.5781C78.4043 43.8906 78.4727 44.2129 78.5312 44.5449C78.6289 45.0137 78.7266 45.4727 78.8242 45.9219C78.9219 46.3516 79.0488 46.7617 79.2051 47.1523C79.3613 47.1523 79.459 47.1621 79.498 47.1816C79.5957 47.1426 79.6934 47.1133 79.791 47.0938C79.9082 47.0742 80.0352 47.0547 80.1719 47.0352L80.4941 47.0059L80.6113 47.2988C80.6309 47.3965 80.7285 47.4941 80.9043 47.5918C81.1582 47.6113 81.3438 47.6699 81.4609 47.7676C81.5781 47.8457 81.6855 47.9336 81.7832 48.0312C81.8613 48.1094 81.9395 48.168 82.0176 48.207L82.457 48.3828L82.2227 48.8223C82.0273 49.1738 81.7441 49.5156 81.373 49.8477C81.0215 50.1602 80.6211 50.4238 80.1719 50.6387C80.1914 50.7559 80.2012 50.873 80.2012 50.9902C80.2207 51.0879 80.25 51.1953 80.2891 51.3125C80.3477 51.6445 80.3965 51.9863 80.4355 52.3379C80.4746 52.6895 80.4746 53.0508 80.4355 53.4219L80.377 53.5391ZM71.9102 48.4707C72.4961 48.4316 73.0234 48.3926 73.4922 48.3535C73.9805 48.2949 74.5176 48.207 75.1035 48.0898C74.9668 47.5039 74.8203 46.8984 74.6641 46.2734C74.5078 45.6289 74.3418 44.9941 74.166 44.3691L73.9902 44.6621C73.5996 45.0723 73.2188 45.5312 72.8477 46.0391C72.4961 46.5469 72.1934 47.0254 71.9395 47.4746C71.8223 47.6504 71.7051 47.8262 71.5879 48.002C71.4707 48.1777 71.3633 48.3535 71.2656 48.5293C71.3828 48.5098 71.4902 48.5 71.5879 48.5C71.7051 48.5 71.8125 48.4902 71.9102 48.4707ZM82.1934 42.8164C82.3301 42.4062 82.5449 42.0547 82.8379 41.7617C83.1504 41.4688 83.4824 41.2246 83.834 41.0293C84.2051 40.8145 84.5859 40.6387 84.9766 40.502C85.3672 40.3652 85.7383 40.248 86.0898 40.1504C86.8711 39.8184 87.7012 39.5059 88.5801 39.2129C89.4785 38.9004 90.3867 38.627 91.3047 38.3926C92.2422 38.1582 93.1992 38.0117 94.1758 37.9531C95.1523 37.875 96.1777 37.9922 97.252 38.3047C97.3105 38.5 97.3984 38.6855 97.5156 38.8613C97.6328 39.0371 97.75 39.2129 97.8672 39.3887C98.0039 39.5645 98.1211 39.7402 98.2188 39.916C98.3164 40.0723 98.375 40.2383 98.3945 40.4141C98.5898 40.5898 98.7461 40.7852 98.8633 41C98.9805 41.1953 99 41.459 98.9219 41.791C98.7266 41.9473 98.5312 42.0938 98.3359 42.2305C98.1602 42.3477 97.9648 42.4551 97.75 42.5527C97.0273 42.377 96.2949 42.3184 95.5527 42.377C94.8105 42.4355 94.1465 42.4844 93.5605 42.5234C93.3848 42.3477 93.1699 42.2598 92.916 42.2598C92.6816 42.2598 92.4277 42.2988 92.1543 42.377C91.9004 42.4551 91.6367 42.5332 91.3633 42.6113C91.1094 42.6895 90.8652 42.709 90.6309 42.6699C90.4355 42.8262 90.1914 42.9336 89.8984 42.9922C89.625 43.0312 89.3223 43.0703 88.9902 43.1094C88.9707 43.207 88.9902 43.2754 89.0488 43.3145C89.1074 43.334 89.1172 43.3926 89.0781 43.4902C89.1953 43.627 89.3418 43.7246 89.5176 43.7832C89.7129 43.8418 89.9082 43.9004 90.1035 43.959C90.3184 44.0176 90.5039 44.0957 90.6602 44.1934C90.8164 44.2715 90.9238 44.4082 90.9824 44.6035C91.2754 44.6035 91.5293 44.6719 91.7441 44.8086C91.959 44.9453 92.1348 45.1113 92.2715 45.3066C92.4082 45.502 92.5059 45.7168 92.5645 45.9512C92.6426 46.166 92.6816 46.3613 92.6816 46.5371C92.7402 46.6934 92.8086 46.7617 92.8867 46.7422C92.9648 46.7227 93.0527 46.7617 93.1504 46.8594C93.209 47.1133 93.3555 47.377 93.5898 47.6504C93.8242 47.9043 94.0098 48.1875 94.1465 48.5C94.1855 48.9883 94.2148 49.4277 94.2344 49.8184C94.2539 50.1895 94.1855 50.5703 94.0293 50.9609C93.7363 51.6836 93.3262 52.3281 92.7988 52.8945C92.291 53.4609 91.7051 53.9688 91.041 54.418C90.3965 54.8477 89.7031 55.2188 88.9609 55.5312C88.2188 55.8438 87.4961 56.1074 86.793 56.3223C86.7148 56.3027 86.6367 56.3027 86.5586 56.3223C86.4805 56.3418 86.4609 56.293 86.5 56.1758C86.3438 56.3125 86.168 56.4004 85.9727 56.4395C85.7969 56.4785 85.6016 56.4883 85.3867 56.4688C85.1719 56.4688 84.9473 56.459 84.7129 56.4395C84.498 56.4199 84.293 56.4297 84.0977 56.4688C83.9609 56.332 83.834 56.1953 83.7168 56.0586C83.6191 55.9414 83.541 55.7852 83.4824 55.5898C83.3848 55.5898 83.3359 55.541 83.3359 55.4434C83.3555 55.3457 83.3262 55.2969 83.248 55.2969C83.3652 55.1016 83.4141 54.9941 83.3945 54.9746C83.3945 54.9355 83.3652 54.9062 83.3066 54.8867C83.2676 54.8672 83.2285 54.8477 83.1895 54.8281C83.1504 54.7891 83.1406 54.7402 83.1602 54.6816C83.2383 54.5254 83.2676 54.3496 83.248 54.1543C83.2285 53.9395 83.209 53.7246 83.1895 53.5098C83.1699 53.2949 83.1797 53.0898 83.2188 52.8945C83.2773 52.6992 83.4238 52.543 83.6582 52.4258C84.3223 52.5039 84.9473 52.4844 85.5332 52.3672C86.1387 52.2305 86.7051 52.0449 87.2324 51.8105C87.7598 51.5762 88.2578 51.3223 88.7266 51.0488C89.2148 50.7754 89.6934 50.5312 90.1621 50.3164C90.2207 50.1406 90.2988 49.9941 90.3965 49.877C90.5137 49.7598 90.6309 49.6523 90.748 49.5547C90.8652 49.457 90.9727 49.3496 91.0703 49.2324C91.168 49.1152 91.2363 48.9688 91.2754 48.793C91.2949 48.6562 91.2559 48.5781 91.1582 48.5586C91.0801 48.5195 91.041 48.4414 91.041 48.3242L90.7188 48.2363C90.3477 48.0215 89.9277 47.8457 89.459 47.709C88.9902 47.5527 88.5898 47.3867 88.2578 47.2109C88.043 47.3281 87.8379 47.3574 87.6426 47.2988C87.4668 47.2402 87.2324 47.1816 86.9395 47.123C86.2754 47.084 85.6309 47.0156 85.0059 46.918C84.4004 46.8203 83.8145 46.6445 83.248 46.3906C83.209 46.293 83.1602 46.2051 83.1016 46.127C83.043 46.0488 82.9355 46.0293 82.7793 46.0684C82.6621 45.9121 82.5449 45.7656 82.4277 45.6289C82.3105 45.4727 82.2031 45.3066 82.1055 45.1309C82.1445 44.8965 82.1738 44.7012 82.1934 44.5449C82.2129 44.3691 82.1543 44.2031 82.0176 44.0469C82.0957 43.793 82.1543 43.5879 82.1934 43.4316C82.2324 43.2754 82.2324 43.0703 82.1934 42.8164ZM103.727 35.8438C103.727 36.0195 103.697 36.2344 103.639 36.4883C103.6 36.7422 103.561 36.9961 103.521 37.25C103.482 37.5039 103.473 37.7383 103.492 37.9531C103.512 38.1484 103.6 38.2754 103.756 38.334C103.404 39.3691 103.16 40.2383 103.023 40.9414C102.906 41.6445 102.799 42.3184 102.701 42.9629C102.623 43.5879 102.516 44.252 102.379 44.9551C102.242 45.6582 101.998 46.5176 101.646 47.5332C101.432 48.1582 101.168 48.5977 100.855 48.8516C100.543 49.0859 100.211 49.2031 99.8594 49.2031C99.5078 49.2031 99.1465 49.1055 98.7754 48.9102C98.4043 48.7148 98.0625 48.5 97.75 48.2656C97.6914 47.8945 97.6816 47.4453 97.7207 46.918C97.7793 46.3711 97.8477 45.8047 97.9258 45.2188C98.0039 44.6328 98.082 44.0762 98.1602 43.5488C98.2383 43.002 98.2969 42.543 98.3359 42.1719C98.5312 41.957 98.668 41.7812 98.7461 41.6445C98.8242 41.5078 98.873 41.3613 98.8926 41.2051C98.9316 41.0488 98.9609 40.8535 98.9805 40.6191C99 40.3848 99.0488 40.0527 99.127 39.623C99.166 39.4082 99.1465 39.2227 99.0684 39.0664C99.0098 38.8906 99 38.7246 99.0391 38.5684C99.0781 38.4902 99.1367 38.4316 99.2148 38.3926C99.3125 38.3535 99.3711 38.2852 99.3906 38.1875C99.4688 37.9336 99.4883 37.7383 99.4492 37.6016C99.4102 37.4453 99.4395 37.2598 99.5371 37.0449C99.6348 36.8887 99.752 36.6445 99.8887 36.3125C100.045 35.9609 100.104 35.5996 100.064 35.2285C100.24 35.0918 100.406 34.9355 100.562 34.7598C100.719 34.584 100.875 34.4277 101.031 34.291C101.207 34.1348 101.393 34.0078 101.588 33.9102C101.803 33.8125 102.057 33.7637 102.35 33.7637C102.506 33.9785 102.623 34.1836 102.701 34.3789C102.779 34.5742 102.848 34.7598 102.906 34.9355C102.984 35.1113 103.082 35.2773 103.199 35.4336C103.316 35.5898 103.492 35.7266 103.727 35.8438ZM100.826 52.5137C100.865 52.6699 100.895 52.8164 100.914 52.9531C100.934 53.0898 100.953 53.2363 100.973 53.3926C100.855 53.8027 100.729 54.1738 100.592 54.5059C100.533 54.6426 100.494 54.7305 100.475 54.7695C100.455 54.8086 100.445 54.8379 100.445 54.8574C100.445 54.877 100.455 54.9062 100.475 54.9453C100.494 54.9648 100.504 55.043 100.504 55.1797L100.357 55.5312C100.26 55.668 100.143 55.7754 100.006 55.8535C99.8887 55.9316 99.7617 56 99.625 56.0586C99.5664 56.0977 99.498 56.127 99.4199 56.1465C99.3613 56.1855 99.3125 56.2246 99.2734 56.2637L99.1855 56.6152L98.7754 56.6738C98.4629 56.752 98.1797 56.791 97.9258 56.791H97.6035C97.3691 56.5762 97.1836 56.4102 97.0469 56.293C96.9102 56.1758 96.7539 56.0684 96.5781 55.9707C96.3633 55.5996 96.2363 55.2773 96.1973 55.0039C96.1582 54.75 96.1094 54.584 96.0508 54.5059L95.6406 54.0957L95.9922 53.832L95.6406 53.2754C95.875 53.0996 96.0508 52.9727 96.168 52.8945C96.2852 52.8164 96.3828 52.7383 96.4609 52.6602C96.5586 52.5625 96.6562 52.4453 96.7539 52.3086C96.8516 52.1719 97.0078 51.9473 97.2227 51.6348L97.4863 51.2539L97.8379 51.459C97.9355 51.5176 98.1113 51.5762 98.3652 51.6348C98.6387 51.6738 98.873 51.7129 99.0684 51.752C99.3809 51.8496 99.6836 51.9277 99.9766 51.9863C100.289 52.0254 100.533 52.123 100.709 52.2793L100.826 52.5137Z" fill="#2B2628"/>
</svg>
