<svg width="30" height="30" viewBox="0 0 30 30" fill="none" xmlns="http://www.w3.org/2000/svg">
<rect width="30" height="30" rx="6" fill="white"/>
<rect x="3" y="3" width="24" height="24" rx="5" fill="#2B2626"/>
<path d="M6.83178 23V11.48H10.3838V23H6.83178ZM8.60778 9.224C7.99978 9.224 7.53578 9.056 7.21578 8.72C6.89578 8.368 6.73578 7.952 6.73578 7.472C6.73578 6.992 6.89578 6.584 7.21578 6.248C7.55178 5.896 8.01578 5.72 8.60778 5.72C9.19978 5.72 9.65578 5.888 9.97578 6.224C10.3118 6.56 10.4798 6.976 10.4798 7.472C10.4798 7.968 10.3198 8.384 9.99978 8.72C9.67978 9.056 9.21578 9.224 8.60778 9.224ZM16.987 23H13.435V11.48H16.195L16.603 12.92C17.115 12.392 17.691 11.976 18.331 11.672C18.971 11.368 19.667 11.216 20.419 11.216C21.715 11.216 22.707 11.568 23.395 12.272C24.083 12.976 24.427 14.008 24.427 15.368V23H20.875V15.728C20.875 15.168 20.739 14.728 20.467 14.408C20.211 14.072 19.827 13.904 19.315 13.904C18.931 13.904 18.523 14.016 18.091 14.24C17.675 14.464 17.307 14.76 16.987 15.128V23Z" fill="white"/>
</svg>
