<svg width="30" height="30" viewBox="0 0 30 30" fill="none" xmlns="http://www.w3.org/2000/svg">
<ellipse cx="15" cy="14.1176" rx="15" ry="14.1176" fill="white"/>
<path d="M1.45834 30L3.33334 22.9412L8.95834 27.0588L1.45834 30Z" fill="white"/>
<ellipse cx="15.2083" cy="14.3137" rx="12.2917" ry="11.5686" fill="#2B2626"/>
<path d="M4.79166 26.0785L6.04166 21.9608L9.37499 24.5098L4.79166 26.0785Z" fill="#2B2626"/>
<path d="M8.75459 10.196C9.04028 9.09891 9.48268 8.50032 10.625 8.03918L12.2963 8.23526L13.5463 11.5686V11.9608L12.2963 13.3333C13.6155 15.4724 14.5992 16.5049 17.0879 17.8431L18.5463 16.6666H18.9629L22.5046 18.0392V19.4117C21.9363 20.2732 21.4941 20.6704 20.4213 21.1764C19.7703 21.2762 19.4055 21.2868 18.7546 21.1764C14.188 19.7093 11.7907 18.693 9.17126 13.3333C8.78269 11.9512 8.73175 11.2924 8.75459 10.196Z" fill="white"/>
</svg>
